{"title":"Electra Woman and Dyna Girl 2016 Movies HDRip XviD AAC New ☻rDX☻","uid":14838144,"size":739609905,"categoryP":"video","categoryS":"movies","magnet":"?xt=urn:btih:738b074cbf57b11adba0701413c513f1185432cf&amp;dn=Electra+Woman+and+Dyna+Girl+2016+Movies+HDRip+XviD+AAC+New+%E2%98%BBrDX%E2%98%BB&amp;tr=udp%3A%2F%2Ftracker.leechers-paradise.org%3A6969&amp;tr=udp%3A%2F%2Fzer0day.ch%3A1337&amp;tr=udp%3A%2F%2Fopen.demonii.com%3A1337&amp;tr=udp%3A%2F%2Ftracker.coppersurfer.tk%3A6969&amp;tr=udp%3A%2F%2Fexodus.desync.com%3A6969","seeders":2,"leechers":1,"uploader":"basicssom","files":2,"time":1465351756,"description":"----------------------------------------------------------------\r\nElectra Woman &amp; Dyna Girl 2016 English Movies HDRip XviD AAC New Source with Sample ☻rDX☻\r\n\r\nSCREEN SHOTS &amp; POSTER:\r\n  \nhttp://mobileshosting.com/2016/6/4g/index.htm  \nhttp://mobileshosting.com/2016/6/4g/1.html  \nhttp://mobileshosting.com/2016/6/4g/2.html  \nhttp://mobileshosting.com/2016/6/4g/3.html  \nhttp://mobileshosting.com/2016/6/4g/4.html  \nhttp://mobileshosting.com/2016/6/4g/5.html  \nhttp://mobileshosting.com/2016/6/4g/6.html  \nhttp://mobileshosting.com/2016/6/4g/7.html  \nhttp://mobileshosting.com/2016/6/4g/8.html  \nhttp://mobileshosting.com/2016/6/4g/9.html  \nhttp://mobileshosting.com/2016/6/4g/10.html\r\n\r\nFormat                                   : Matroska\r\nFormat version                           : Version 4 / Version 2\r\nFile size                                : 694 MiB\r\nDuration                                 : 1h 21mn\r\nOverall bit rate                         : 1 196 Kbps\r\nMovie name                               : Electra Woman &amp; Dyna Girl 2016 English Movies HDRip XviD AAC New Source ☻rDX☻\r\n\r\nVideo\r\nID                                       : 1\r\nFormat                                   : MPEG-4 Visual\r\nFormat profile                           : Advanced   \r\nFormat settings, BVOP                    : Yes\r\nFormat settings, QPel                    : No\r\nFormat settings, GMC                     : No warppoints\r\nFormat settings, Matrix                  : Default (H.263)\r\nCodec ID                                 : V_MS/VFW/FOURCC / XVID\r\nCodec ID/Hint                            : XviD\r\nDuration                                 : 1h 21mn\r\nBit rate                                 : 1 044 Kbps\r\nWidth                                    : 640 pixels\r\nHeight                                   : 272 pixels\r\nDisplay aspect ratio                     : 2.35:1\r\nFrame rate mode                          : Constant\r\nFrame rate                               : 23.976 fps\r\nColor space                              : YUV\r\nChroma subsampling                       : 4:2:0\r\nBit depth                                : 8 bits\r\nScan type                                : Progressive\r\nCompression mode                         : Lossy\r\nBits/(Pixel*Frame)                       : 0.250\r\nStream size                              : 606 MiB (87%)\r\nTitle                                    : ☻rDX☻\r\nWriting library                          : XviD 65\r\nDefault                                  : Yes\r\nForced                                   : No\r\n\r\nAudio\r\nID                                       : 2\r\nFormat                                   : MPEG Audio\r\nFormat version                           : Version 1\r\nFormat profile                           : Layer 3\r\nMode                                     : Joint stereo\r\nMode extension                           : MS Stereo\r\nCodec ID                                 : A_MPEG/L3\r\nCodec ID/Hint                            : MP3\r\nDuration                                 : 1h 21mn\r\nBit rate mode                            : Constant\r\nBit rate                                 : 128 Kbps\r\nChannel(s)                               : 2 channels\r\nSampling rate                            : 48.0 KHz\r\nCompression mode                         : Lossy\r\nStream size                              : 74.3 MiB (11%)\r\nTitle                                    : ☻rDX☻\r\nWriting library                          : LAME3.99r\r\nEncoding settings                        : -m j -V 4 -q 3 -lowpass 17 -b 128\r\nDefault                                  : Yes\r\nForced                                   : No\r\n\r\nIMDB \nhttp://www.imdb.com/title/tt4644822/","torrent":{"xt":"urn:btih:738b074cbf57b11adba0701413c513f1185432cf","amp;dn":"Electra+Woman+and+Dyna+Girl+2016+Movies+HDRip+XviD+AAC+New+%E2%98%BBrDX%E2%98%BB","amp;tr":["udp%3A%2F%2Ftracker.leechers-paradise.org%3A6969","udp%3A%2F%2Fzer0day.ch%3A1337","udp%3A%2F%2Fopen.demonii.com%3A1337","udp%3A%2F%2Ftracker.coppersurfer.tk%3A6969","udp%3A%2F%2Fexodus.desync.com%3A6969"],"infoHash":"738b074cbf57b11adba0701413c513f1185432cf","infoHashBuffer":{"type":"Buffer","data":[115,139,7,76,191,87,177,26,219,160,112,20,19,197,19,241,24,84,50,207]},"announce":[],"urlList":[]}}